<?xml version="1.0" encoding="utf-8"?>
<!-- Generator: Adobe Illustrator 25.4.1, SVG Export Plug-In . SVG Version: 6.00 Build 0)  -->
<svg version="1.1" id="Layer_1" xmlns="http://www.w3.org/2000/svg" xmlns:xlink="http://www.w3.org/1999/xlink" x="0px" y="0px"
	 viewBox="0 0 703.6 736" style="enable-background:new 0 0 703.6 736;" xml:space="preserve">
<style type="text/css">
	.st0{fill:#4E6245;}
	.st1{fill:#FFFFFF;}
	.st2{fill:#7AB870;}
	.st3{opacity:0.2;fill:#FFFFFF;}
	.st4{fill:#4EA641;}
	.st5{fill:#FF8C00;}
	.st6{fill:#344154;}
	
		.st7{clip-path:url(#SVGID_00000066504478812355675050000000228209820088753593_);fill:url(#SVGID_00000078010328045280779520000007185058201456293010_);}
	.st8{clip-path:url(#SVGID_00000066504478812355675050000000228209820088753593_);fill:#90C089;}
	.st9{clip-path:url(#SVGID_00000066504478812355675050000000228209820088753593_);fill:#4EA641;}
	.st10{fill:#90C089;}
	.st11{fill:#A1C699;}
	.st12{fill:#8AC180;}
	.st13{fill:#76A36D;}
</style>
<g>
	<path class="st2" d="M631.3,584.1L400.8,718c-29.7,17.3-66.4,17.4-96.3,0.2l-10.2-5.9L206.5,662L117.8,611l-44.5-25.5
		C43.5,568.4,25,536.6,25,502.2l-0.6-266.6c0-7.6,0.9-15.1,2.6-22.4c6-25.4,22.2-47.7,45.4-61.1L302.8,18.3
		c29.7-17.3,66.4-17.4,96.3-0.2l18.9,10.8l212.3,121.9c29.8,17.1,48.3,48.9,48.3,83.3l0.3,108.6l0.4,158
		C679.3,535,661.1,566.9,631.3,584.1z"/>
	<path class="st11" d="M678.9,342.6c-42.1,38.7-100.1,59.7-161.3,52.7c-112.1-12.7-192.7-113.8-180.1-225.9
		c6.6-58.2,37-108,80.5-140.6l212.3,121.9c29.8,17.1,48.3,48.9,48.3,83.3L678.9,342.6z"/>
	<path class="st12" d="M350.7,467.2c-10.1,89.1-67.4,161.4-144.2,194.8L117.8,611l-44.5-25.5C43.5,568.4,25,536.6,25,502.2
		l-0.6-266.6c0-7.6,0.9-15.1,2.6-22.4c34.3-12.7,72-17.7,110.7-13.4C259.5,213.7,350,315.8,352.2,435.2
		C352.4,445.8,351.9,456.4,350.7,467.2z"/>
	<path class="st13" d="M416.7,578.6C409,646.7,358,699.4,294.2,712.3L206.5,662L117.8,611c-7.1-20.9-9.9-43.6-7.2-67
		c9.5-84.5,85.8-145.3,170.4-135.8c26.6,3,50.9,12.6,71.3,27C396.8,466.6,423.3,520.6,416.7,578.6z"/>
</g>
</svg>
