<?xml version="1.0" encoding="utf-8"?>
<!-- Generator: Adobe Illustrator 25.4.1, SVG Export Plug-In . SVG Version: 6.00 Build 0)  -->
<svg version="1.1" id="Layer_1" xmlns="http://www.w3.org/2000/svg" xmlns:xlink="http://www.w3.org/1999/xlink" x="0px" y="0px"
	 viewBox="0 0 1134.7 950.4" style="enable-background:new 0 0 1134.7 950.4;" xml:space="preserve">
<style type="text/css">
	.st0{fill:#4E6245;}
	.st1{fill:#FFFFFF;}
	.st2{fill:#7AB870;}
	.st3{opacity:0.2;fill:#FFFFFF;}
	.st4{fill:#4EA641;}
	.st5{fill:#FF8C00;}
	.st6{fill:#344154;}
	
		.st7{clip-path:url(#SVGID_00000103225256008664842450000010289971548671116703_);fill:url(#SVGID_00000111190033400477258120000010621012266194868922_);}
	.st8{clip-path:url(#SVGID_00000103225256008664842450000010289971548671116703_);fill:#90C089;}
	.st9{clip-path:url(#SVGID_00000103225256008664842450000010289971548671116703_);fill:#4EA641;}
	.st10{fill:#90C089;}
</style>
<g>
	<g>
		<defs>
			<path id="SVGID_1_" d="M1092.1,739.4L883,910.1C832.9,951,764.6,961.7,704.4,938L160.5,723.7C89.9,695.9,35,638.5,10.3,566.8
				L0,536.9v-466L373,3.7c73.2-13.2,148.4,9.4,202.1,60.9l523.8,501.3C1149.2,614,1146,695.4,1092.1,739.4z"/>
		</defs>
		<clipPath id="SVGID_00000109030366193594754240000001959792640978213515_">
			<use xlink:href="#SVGID_1_"  style="overflow:visible;"/>
		</clipPath>
		
			<linearGradient id="SVGID_00000057869091957771428030000003366792315267532951_" gradientUnits="userSpaceOnUse" x1="-15.0524" y1="742.5883" x2="1085.8207" y2="138.876">
			<stop  offset="2.194280e-02" style="stop-color:#F4F4F4"/>
			<stop  offset="0.8195" style="stop-color:#FFFFFF"/>
		</linearGradient>
		
			<path style="clip-path:url(#SVGID_00000109030366193594754240000001959792640978213515_);fill:url(#SVGID_00000057869091957771428030000003366792315267532951_);" d="
			M1092.1,739.4L883,910.1C832.9,951,764.6,961.7,704.4,938L160.5,723.7C89.9,695.9,35,638.5,10.3,566.8L0,536.9v-466L373,3.7
			c73.2-13.2,148.4,9.4,202.1,60.9l523.8,501.3C1149.2,614,1146,695.4,1092.1,739.4z"/>
		<path style="clip-path:url(#SVGID_00000109030366193594754240000001959792640978213515_);fill:#90C089;" d="M728,1123l-119.9,89
			l-91.9,68.2c-27.3,20.3-63.4,24.4-94.6,10.9l-242-104.8c-31.2-13.5-52.9-42.7-56.8-76.5l-30.2-262c-3.9-33.8,10.5-67.1,37.9-87.4
			l181.5-134.7l30.6-22.7c27.3-20.1,63.2-24.2,94.4-10.7l242,104.8c31.2,13.5,52.9,42.7,56.8,76.5l30.2,262
			C769.8,1069.5,755.3,1102.8,728,1123z"/>
		<path style="clip-path:url(#SVGID_00000109030366193594754240000001959792640978213515_);fill:#4EA641;" d="M757,1101.5l-119.9,89
			c-11.6-7.5-22.2-17.2-30.9-29l-290-390.7C277,718,288.1,643.4,340.9,604.2l30.6-22.7c27.3-20.1,63.2-24.2,94.4-10.7l242,104.8
			c31.2,13.5,52.9,42.7,56.8,76.5l30.2,262C798.8,1048,784.3,1081.3,757,1101.5z"/>
	</g>
</g>
</svg>
