<svg id="Layer_1" data-name="Layer 1" xmlns="http://www.w3.org/2000/svg" viewBox="0 0 980.064 446.4"><defs><style>.cls-1{fill:#0055a7;}</style></defs><path class="cls-1" d="M752.9,246.893c0,4.661.151,9.328-.048,13.98-.16,3.749,2.013,7.236,6.6,8.379a7.562,7.562,0,0,1,2.759,1.336,3.083,3.083,0,0,1,.959,3.589c-.451,1.428-1.633,1.624-2.85,1.582-3.263-.111-6.521-.381-9.784-.427-3.819-.054-7.64.032-11.459.116-2.5.055-5,.252-7.5.311-1.13.027-2.286-.107-2.7-1.465a3.052,3.052,0,0,1,.738-3.455,15.436,15.436,0,0,1,2-1.452c1.71-1.073,3.1-2.374,3.321-4.518.3-2.892.778-5.784.822-8.681q.174-11.58,0-23.164a25.028,25.028,0,0,0-.936-5.937,4,4,0,0,0-3.624-3.012c-.758-.094-1.531-.086-2.285-.2a3.2,3.2,0,0,1-2.763-2.934,3.237,3.237,0,0,1,2.69-3.222c5.128-.725,9.849-2.792,14.7-4.417,1.7-.568,3.265-1.509,4.906-2.249,2.425-1.094,4.314.053,4.431,2.723.057,1.318-.1,2.647,0,3.961.042.622.284,1.56.7,1.738.464.2,1.31-.177,1.846-.523,1.972-1.274,3.8-2.784,5.837-3.942,6.369-3.627,13.052-4.573,19.626-.867,2.376,1.339,4.32,3.694,6.014,5.925,2.021,2.661,3.047,2.986,5.393.622a31.442,31.442,0,0,1,14.386-8.377,17.627,17.627,0,0,1,10.244.52,15.617,15.617,0,0,1,8.15,5.433,32.042,32.042,0,0,1,3.666,6.9c2.414,6.031,1.975,12.422,1.989,18.738.011,4.87.092,9.742-.033,14.608a14.121,14.121,0,0,0,2.072,7.547,6.894,6.894,0,0,0,5.124,3.212,3.637,3.637,0,0,1,3.047,2.491,2.773,2.773,0,0,1-2.439,4.017,42.6,42.6,0,0,1-5.839-.12,91.894,91.894,0,0,0-18.324.019c-1.381.129-2.78.084-4.171.079a2.4,2.4,0,0,1-2.429-1.612,2.478,2.478,0,0,1,.6-3.033,11.947,11.947,0,0,1,1.71-1.514,7.908,7.908,0,0,0,4.028-7.219c-.039-8.139.065-16.28-.046-24.418-.061-4.53-1.211-8.917-4.329-12.266a9.882,9.882,0,0,0-5.839-2.8c-3.688-.348-7.623.288-9.924,3.546a14.325,14.325,0,0,0-2.549,7.332c-.3,8.615-.228,17.249-.041,25.871A13.876,13.876,0,0,0,793.1,265.8a7.586,7.586,0,0,0,5.392,3.509,3.613,3.613,0,0,1,2.916,2.357,2.816,2.816,0,0,1-2.572,4.116,35.278,35.278,0,0,1-5.213-.092,93.9,93.9,0,0,0-19.156.043,12.243,12.243,0,0,1-3.12-.055c-2.421-.4-3.142-2.617-1.517-4.469a5.373,5.373,0,0,1,1.15-1.2c3.875-2.248,4.348-6.049,4.454-9.923.122-4.449.158-8.909-.012-13.355-.174-4.574-.491-9.155-1.035-13.7a11.743,11.743,0,0,0-4.251-8.061,14.419,14.419,0,0,0-6.178-2.176c-2.626-.457-5.15.706-7.31,1.979-2.6,1.53-3.706,4.24-3.708,7.3q0,7.409,0,14.818Z"/><path class="cls-1" d="M380.265,168.526a7.394,7.394,0,0,1,2.179,8.527,7.051,7.051,0,0,0-.235,2.063q-.279,17.927-.533,35.853c-.016,1.113-.083,2.228-.033,3.338a24.186,24.186,0,0,0,.462,2.651c2.083-1.524,3.737-2.844,5.5-4,5.594-3.68,11.7-6.04,18.439-4.927,7.364,1.216,12.793,5.159,15.522,12.524,2.24,6.047,2.8,12.306,3.013,18.608.2,5.974,0,11.963-.078,17.945a8.111,8.111,0,0,0,6.732,8.28c2.829.574,4.163,3.308,2.482,5.194a3.962,3.962,0,0,1-2.523,1.132,39.978,39.978,0,0,1-6.878-.123,84.538,84.538,0,0,0-16.863.072,21.781,21.781,0,0,1-4.373.081,4.247,4.247,0,0,1-2.6-1.292,2.414,2.414,0,0,1,.428-3.234,8.143,8.143,0,0,1,1.993-1.773,8.016,8.016,0,0,0,4.414-7.513c.114-7.443.253-14.9-.018-22.329a38.579,38.579,0,0,0-1.935-9.541c-1.772-5.874-9.534-8.462-14.4-6.9a17.736,17.736,0,0,0-5.426,2.43c-3.054,2.355-3.684,6.042-3.783,9.578-.213,7.578-.109,15.166-.045,22.749a20.042,20.042,0,0,0,.662,4.941c.971,3.638,3.6,5.548,7.14,6.462a10.692,10.692,0,0,1,3.336,1.462,2.688,2.688,0,0,1,.873,3.37,2.462,2.462,0,0,1-2.67,1.582c-3.405-.057-6.809-.234-10.214-.276q-6.036-.075-12.072.007c-2.572.036-5.141.245-7.713.31a2.735,2.735,0,0,1-2.887-1.641,2.6,2.6,0,0,1,.738-3.038,12.983,12.983,0,0,1,2.012-1.74,7.3,7.3,0,0,0,3.758-5.691c.239-2.694.461-5.4.466-8.1q.057-31.2,0-62.409a43.471,43.471,0,0,0-.459-6.232c-.414-2.82-2.073-4.2-4.944-4.417-.139-.01-.278-.007-.417-.019-2.135-.2-3.757-1.545-3.811-3.171-.051-1.563,1.653-2.865,3.678-3.369,3.942-.981,7.89-2.019,11.71-3.384,2.7-.966,5.184-2.536,7.795-3.772A5.21,5.21,0,0,1,380.265,168.526Z"/><path class="cls-1" d="M650.663,222.807c0,10.992-.038,21.984.018,32.976.023,4.391,1.349,8.3,5.408,10.593a34.76,34.76,0,0,0,5.8,2.231c.848.293,1.776.346,2.646.585a4.241,4.241,0,0,1,3.079,3.778c-.062,1.77-1.06,2.881-3.226,3.228a14.465,14.465,0,0,1-4.151.145c-9.152-1.23-18.341-.664-27.515-.614-3.883.02-7.763.468-11.647.671a12.882,12.882,0,0,1-2.7-.19c-2.225-.358-3.017-1.121-3.19-2.941a4.054,4.054,0,0,1,2.751-3.782c2.023-.7,4.05-1.4,6.1-2.022a8.962,8.962,0,0,0,5.593-5.237,22.7,22.7,0,0,0,1.843-9.544c-.067-20.522-.033-41.045-.034-61.568,0-.626.009-1.253-.017-1.878-.153-3.657-1.5-4.967-5.173-4.971-3.966,0-7.935-.055-11.9.072-7.051.226-11.324,3.163-13.442,9.948-.477,1.526-.848,3.087-1.347,4.6-.523,1.588-1.086,3.137-2.786,3.966-2.4,1.168-4.865-.059-4.9-2.749a27.517,27.517,0,0,1,.7-6.819,53.087,53.087,0,0,0,1.372-12.195,15.714,15.714,0,0,1,.1-2.289c.522-3.3,2.44-4.949,5.736-4.784,22.527,1.123,45.07.43,67.605.6,4.163.031,8.329-.337,12.494-.523.347-.016.695-.043,1.041-.073,4.916-.427,7.064,1.227,7.059,6.225s.62,9.969.973,14.954c.1,1.447-.166,2.622-1.845,3.015-1.708.4-3.3,0-4.008-1.336a24.8,24.8,0,0,1-1.746-4.186,10.617,10.617,0,0,0-5.485-6.665,16.2,16.2,0,0,0-7.431-1.681c-4.174-.081-8.35-.02-12.523-.091-3.833-.065-5.279,1.832-5.272,5.365Q650.689,206.215,650.663,222.807Z"/><path class="cls-1" d="M32.16,180.351v-5.608a18.472,18.472,0,0,1,3.093-.573c2.5-.032,5.007.062,7.509.149,2.082.072,4.177.08,6.239.336a170.153,170.153,0,0,0,24.548.747c6.158-.127,12.3-.76,18.461-1.068,3.678-.184,7.368-.281,11.05-.216a4.327,4.327,0,0,1,4.381,4.568q.027,8.243-.014,16.485c-.011,2.3-.664,3.035-2.655,3.165-2.126.138-3.423-.784-3.567-2.884a12.124,12.124,0,0,0-1.652-6.135,12.92,12.92,0,0,0-6.531-5.139c-6.815-2.633-13.824-1.966-20.813-1.675a6.22,6.22,0,0,0-6.115,6.573q-.054,11.373-.016,22.745c.008,3.246,1.46,4.986,4.71,5.188,4.222.262,8.453.475,12.562-1.133a11.438,11.438,0,0,0,5.866-5.585c.77-1.391,1.37-2.882,2.2-4.233,1.029-1.677,2.623-2.342,4.023-1.89,1.59.513,2.332,1.615,2.313,3.77-.026,2.987-.283,5.977-.217,8.96.143,6.459.405,12.916.667,19.372.106,2.619-.8,4-2.943,4.213a3.693,3.693,0,0,1-3.858-3.572c-.213-2.375-.468-4.619-1.9-6.69-1.57-2.278-3.318-4.2-6.221-4.327-4.511-.2-9.03-.293-13.545-.255a3.6,3.6,0,0,0-3.636,3.81c-.039,9.251-.176,18.507.092,27.75.128,4.427,3.551,9.741,8.549,10.587a55,55,0,0,1,5.436,1.456,4.119,4.119,0,0,1,2.922,3.629,3.417,3.417,0,0,1-3.4,3.289c-2,.123-4.008-.03-6.012-.1-.83-.03-1.657-.238-2.485-.24q-12.519-.027-25.038,0c-.9,0-1.788.267-2.687.308a37.816,37.816,0,0,1-4.771.056c-1.381-.114-2.808-.392-3.04-2.245-.27-2.155.409-3.67,2.07-4.565a35.226,35.226,0,0,0,5.224-3c2.868-2.267,4.072-5.527,4.551-9.064a17.337,17.337,0,0,0,.055-2.293q0-30.153.008-60.305a14.407,14.407,0,0,0-1.308-6.668c-1.667-3.352-4.011-5.484-7.867-5.982A45.846,45.846,0,0,1,32.16,180.351Z"/><path class="cls-1" d="M251.526,220.549c1-.818,2-1.645,3.007-2.454a30.381,30.381,0,0,1,12.885-5.939,20.2,20.2,0,0,1,11.063.928,18.656,18.656,0,0,1,8.732,6.411,25.4,25.4,0,0,1,3.371,6.374c1.925,4.913,1.8,9.937,1.827,15,.03,5.565.05,11.13-.01,16.695a16.333,16.333,0,0,0,1.929,8.031,7.191,7.191,0,0,0,5.029,3.7,4.077,4.077,0,0,1,3.11,2.185,2.8,2.8,0,0,1-2.3,4.245,35.666,35.666,0,0,1-6.045-.063,92.114,92.114,0,0,0-18.316.027,38.13,38.13,0,0,1-4.793.037,2.444,2.444,0,0,1-2.387-1.707,2.3,2.3,0,0,1,.8-2.782,20.818,20.818,0,0,1,2.4-1.941,7.216,7.216,0,0,0,3.761-5.223,29.393,29.393,0,0,0,.45-4.974c-.083-7.367-.117-14.739-.448-22.1-.2-4.383-1.375-8.674-5-11.517a11.839,11.839,0,0,0-9.928-2.586,21.691,21.691,0,0,0-4.407,1.248,7.706,7.706,0,0,0-3.312,2.345,11.787,11.787,0,0,0-2.391,6.551c.053,9.112.023,18.225.015,27.337,0,4.661,3.127,8.292,8.068,9.046a5.608,5.608,0,0,1,3.188,1.639,4.421,4.421,0,0,1,.537,3.049c-.13,1.218-1.255,1.609-2.363,1.613a69.25,69.25,0,0,1-7.922-.127c-6.472-.718-12.914-.29-19.369.105a31.985,31.985,0,0,1-4.165-.039,2.093,2.093,0,0,1-2.127-1.676,2.567,2.567,0,0,1,.816-2.822c1.357-1.076,2.726-2.146,3.994-3.322a7.882,7.882,0,0,0,2.572-5.961c.019-10.573.046-21.146-.009-31.719-.019-3.787-2.087-5.842-5.813-6.188a5.81,5.81,0,0,1-2.184-.588,2.867,2.867,0,0,1-1.5-3.171,2.7,2.7,0,0,1,2.209-2.452c2.972-.708,5.967-1.345,8.894-2.21a64.294,64.294,0,0,0,6.391-2.431c1.783-.741,3.488-1.67,5.28-2.385,1.916-.766,3.362.086,3.578,2.165.172,1.652.045,3.334.089,5,.022.8.133,1.6.2,2.4Z"/><path class="cls-1" d="M213.136,245.555c0,5.493-.014,10.986,0,16.479.011,3.314,1.783,4.715,5.1,4.228a5.067,5.067,0,0,1,2.6.237c2.013.855,2.405,2.528,1,4.187-3.69,4.353-10.421,6.908-16.168,4.88-1.937-.685-3.574-2.556-5.034-4.169-1.652-1.826-2.264-2.025-4.316-.684a41.2,41.2,0,0,1-4.728,2.574,40.321,40.321,0,0,1-12.919,3.734,24.729,24.729,0,0,1-6.8.176c-7.356-1.235-10.49-5.828-11.042-12.875-.592-7.561,2.634-13.371,9.3-17.276a46.042,46.042,0,0,1,15.023-5.8c2.987-.55,5.945-1.262,8.91-1.93,1.771-.4,2.726-1.655,2.608-3.727-.212-3.729-.265-7.509-2.388-10.832-1.493-2.337-3.193-4.4-6.152-4.853-2.364-.361-4.605-1.506-7.15-.642-3.021,1.025-3.836,1.88-3.83,5.086,0,2.238.227,4.571-1.719,6.178a10.939,10.939,0,0,1-3.681,2.116,24.072,24.072,0,0,1-6.089,1.042c-2.453.07-4.133-2.428-3.847-5.164.486-4.651,3.122-7.982,6.758-10.533a27.789,27.789,0,0,1,17.308-4.884c3.4.11,6.8.211,10.184.493,5.526.462,10.042,3.183,13.727,7.086a11.908,11.908,0,0,1,3.117,8.4c-.034,5.49-.009,10.98-.009,16.47Zm-16.2,7.176-.2-.012c0-2.086.065-4.174-.022-6.255-.06-1.456-.677-1.913-2.033-1.561-4.013,1.043-7.941,2.142-11.5,4.533-4.1,2.751-5.372,6.606-5.16,11.073a7.429,7.429,0,0,0,2.108,4.769c3.731,3.312,10.572,2.4,14.368-.479a4.517,4.517,0,0,0,1.884-3.56C196.484,258.4,196.739,255.566,196.933,252.731Z"/><path class="cls-1" d="M563.7,241.406c-5.219,0-10.438-.01-15.657.01a10.928,10.928,0,0,0-2.48.235,2.194,2.194,0,0,0-1.8,2.247,21.689,21.689,0,0,0,3.431,12.267c2.226,3.69,5.189,6.881,9.193,8.466,3.524,1.4,7.139,2.781,11.295,1.721a36.05,36.05,0,0,0,12.778-6.2,4.373,4.373,0,0,1,2.114-.748c2.668-.252,3.94,1.516,2.851,3.954a14.819,14.819,0,0,1-6.011,6.49c-3.222,1.982-6.488,4.1-10.026,5.316-6.266,2.148-12.875,3.645-19.468,2.038-8.909-2.171-15.819-7.149-19.673-15.864-1.406-3.178-1.855-6.482-2.526-9.818-1.012-5.023.057-9.821.882-14.636a29.113,29.113,0,0,1,4.444-10.711,32.78,32.78,0,0,1,9.808-9.772,19.209,19.209,0,0,1,5.075-2.37,48.319,48.319,0,0,1,7.951-1.635,22.046,22.046,0,0,1,5.146.408c1.031.13,2.032.576,3.059.627,3.406.167,6.13,1.932,8.983,3.508a25.053,25.053,0,0,1,8.451,7.85c2.385,3.422,4.035,7.118,3.932,11.434-.084,3.549-1.825,5.27-5.469,5.262-5.428-.012-10.855,0-16.283,0Zm-8.48-5.913v-.031c2.988,0,5.977.062,8.962-.021,2.27-.063,4-1.49,4.126-3.371.314-4.727-1.7-8.458-5.21-11.446a16.726,16.726,0,0,0-2.564-1.356,9.2,9.2,0,0,0-8.43-.487c-5.624,2.444-8.136,7.293-8.713,13.2-.231,2.36.918,3.484,3.283,3.507C549.518,235.514,552.367,235.493,555.216,235.493Z"/><path class="cls-1" d="M875.146,241.43c-5.356,0-10.712-.018-16.068.007-3.241.014-4.064.76-3.825,3.95a23.381,23.381,0,0,0,7.8,16.027,20.364,20.364,0,0,0,10.978,5.025,16.036,16.036,0,0,0,4.748-.181c4.994-.762,9.234-3.208,13.233-6.154a3.773,3.773,0,0,1,4.3-.154c1.066.848,1.345,2.245.136,3.932a28.258,28.258,0,0,1-5.118,5.63,33.4,33.4,0,0,1-8.44,4.773,41.491,41.491,0,0,1-17.634,3.325,27.425,27.425,0,0,1-11.63-3.406,23.774,23.774,0,0,1-8.341-7.058c-2.8-3.83-5.039-7.928-5.531-12.788-.2-1.928-.672-3.828-.863-5.757-.424-4.276.488-8.5,1.44-12.557a31.1,31.1,0,0,1,11.177-17.582,22.132,22.132,0,0,1,11.208-5.1c1.853-.214,3.676-1.012,5.509-1a48.252,48.252,0,0,1,6.762.937c7.885,1.189,13.9,5.357,18.271,11.86a18.675,18.675,0,0,1,3.494,11.343c-.157,3.392-1.864,4.914-5.329,4.933-5.425.03-10.851.008-16.276.008Zm-8.549-5.954v-.169c3.259,0,6.52.052,9.777-.023,1.573-.036,3.131-.756,3.184-2.417a18.64,18.64,0,0,0-.775-6.682,12.217,12.217,0,0,0-6.673-7.025,10.035,10.035,0,0,0-8.077-.488c-5.724,2.288-8.49,7.079-9.43,12.957-.392,2.453.916,3.78,3.457,3.834C860.905,235.523,863.751,235.476,866.6,235.476Z"/><path class="cls-1" d="M130.425,223.042a20.346,20.346,0,0,0,1.939-2.326,20.674,20.674,0,0,1,6.608-6.27,8.658,8.658,0,0,1,9.339-.136c2.11,1.2,3.83,3.134,5.6,4.866,2.239,2.189,1.74,4.947.843,7.418a26.811,26.811,0,0,1-3.378,5.888c-1.94,2.8-4.088,3.086-6.9,1.112-1.192-.836-2.31-1.777-3.5-2.616a7.746,7.746,0,0,0-6.136-1.345,4.487,4.487,0,0,0-3.472,2.962,24.486,24.486,0,0,0-1.857,9.958c.132,5.771.261,11.559-.029,17.319-.26,5.175,3.651,8.573,8.1,9.5a7.942,7.942,0,0,1,2.992,1.268,2.841,2.841,0,0,1,.814,3.408,2.377,2.377,0,0,1-2.575,1.694,69.7,69.7,0,0,1-7.922-.156c-6.615-.764-13.194-.171-19.788.159a17.7,17.7,0,0,1-3.741-.121,2.382,2.382,0,0,1-1.466-3.97,8.117,8.117,0,0,1,2.091-2.014c3.709-2.081,4.974-5.3,4.941-9.385q-.117-14.818.025-29.638a7.527,7.527,0,0,0-2.169-5.441,6.063,6.063,0,0,0-2.806-1.091c-.865-.228-1.817-.15-2.661-.42a2.94,2.94,0,0,1-2.1-3.225,2.838,2.838,0,0,1,2.443-2.711c3.046-.7,6.122-1.326,9.087-2.287,2.55-.827,4.956-2.092,7.438-3.133a39.29,39.29,0,0,1,4.271-1.651c1.937-.556,3.352.537,3.43,2.767.075,2.145-.188,4.3-.238,6.451-.024,1.021.1,2.046.158,3.07Z"/><path class="cls-1" d="M478.83,266.426c-.2-3.257-.483-6.512-.585-9.772-.078-2.516.762-3.543,2.664-3.716,1.863-.17,3,.973,3.615,3.239a23.788,23.788,0,0,0,9.224,13.447c3.437,2.49,7.164,2.331,10.734,1.31,3.932-1.124,5.979-6,5.228-9.841-.728-3.72-3.372-5.759-6.616-7.153-2.781-1.195-5.627-2.238-8.423-3.4-1.839-.766-3.649-1.6-5.456-2.447-9.188-4.28-12.276-12.1-9.7-21.967,1.32-5.053,4.745-8.476,9.332-10.883a27.967,27.967,0,0,1,12.181-2.977,40.718,40.718,0,0,1,12.6,1.229c2.844.79,4.551,2.585,4.764,5.525.2,2.693.467,5.38.649,8.074.1,1.46-.1,2.825-1.829,3.313a3.542,3.542,0,0,1-4.039-1.859,31.526,31.526,0,0,0-2.985-4.731c-3.684-4.095-8.27-6.309-13.9-5.477a6.623,6.623,0,0,0-4.537,9.708c1.686,2.847,4.5,4.193,7.4,5.426,4.246,1.807,8.787,2.915,12.749,5.4,1.282.806,2.707,1.4,3.945,2.26a14.524,14.524,0,0,1,6.542,12.6,38.42,38.42,0,0,1-.708,8.472,17.579,17.579,0,0,1-9.677,11.867,29.616,29.616,0,0,1-22.191,2.253,32.187,32.187,0,0,0-3.91-.594,27.737,27.737,0,0,1-3.077-.532c-3.417-.931-4.125-1.9-4.122-5.426q0-1.669,0-3.339Z"/><path class="cls-1" d="M903.64,263.452c0-2.434-.011-4.868,0-7.3.012-2.032.62-2.864,2.264-3.171a3.609,3.609,0,0,1,3.726,2.374,32.989,32.989,0,0,0,1.745,5.08,42.059,42.059,0,0,0,3.985,6.049c3.244,4.164,7.628,5.536,12.769,4.851,5.68-.756,9.255-8.557,5.611-13.226a14.062,14.062,0,0,0-6.1-4.442c-4.869-1.972-9.835-3.783-14.485-6.193-5.85-3.033-8.823-8.109-9.106-14.813a20.479,20.479,0,0,1,1.738-9.126,14.877,14.877,0,0,1,7.8-8.01,78.528,78.528,0,0,1,8.593-3,15.713,15.713,0,0,1,3.933-.238c1.251-.032,2.52.123,3.753-.029,3.5-.435,6.747.757,10,1.633a4.917,4.917,0,0,1,3.722,4.319c.3,2.967.46,5.95.617,8.93.072,1.377-.174,2.688-1.731,3.208-1.355.453-2.685-.143-3.656-1.639-1.659-2.555-3.124-5.282-5.65-7.122-3.467-2.525-7.271-4.073-11.654-3.143a6.774,6.774,0,0,0-5.371,7.924c.466,2.514,2.369,4.1,4.527,5.108,3.5,1.637,7.194,2.85,10.679,4.511a84.159,84.159,0,0,1,10.521,5.748c1.623,1.082,2.724,3.058,3.834,4.777,2.81,4.357,2.4,9.342,1.6,13.973-1.007,5.827-4.059,10.774-9.717,13.487-7.185,3.444-14.621,4.569-22.449,2.366-2.19-.616-4.532-.68-6.786-1.1a12.271,12.271,0,0,1-2.729-.937,3.21,3.21,0,0,1-1.987-3.336c.07-2.5.018-5.006.018-7.509Z"/><path class="cls-1" d="M328.736,277.506c-4.2.76-8.3-.6-12.045-2.188a25.1,25.1,0,0,1-13.557-13.445,33.927,33.927,0,0,1-2.739-16.082c.653-9.285,4.128-17.4,11.049-23.8a34.842,34.842,0,0,1,10.592-6.822c4.65-1.894,9.386-3.146,14.336-2.829,3.68.235,7.437.778,10.742,2.771,1.358.818,2.784,1.532,4.1,2.415a10.906,10.906,0,0,1,2.133,1.975c2.6,3.04,2.617,5.341-.089,8.279a21.27,21.27,0,0,1-7.571,5.372c-1.787.734-3.7-.6-4.552-2.827a31.359,31.359,0,0,0-3.057-6.557,7.821,7.821,0,0,0-7.054-3.711,20.811,20.811,0,0,1-3.129-.026c-4.455-.454-8.579,3.506-9.949,7.15-2.571,6.839-2.375,13.752-.49,20.67a57.332,57.332,0,0,0,2.786,8.014c1.373,3.116,3.921,5.333,6.523,7.448,2.769,2.251,6.164,2.775,9.5,3.361a9.617,9.617,0,0,0,3.271-.391,21.777,21.777,0,0,1,3.031-.725c2.8-.107,4.878-1.893,7.239-2.983,1.49-.689,2.738-1.887,4.2-2.663a5.338,5.338,0,0,1,2.6-.512c2.232.087,3.335,1.952,2.06,3.765a32.523,32.523,0,0,1-5.019,5.779A30.413,30.413,0,0,1,342.31,275.3C337.962,276.592,333.565,278.214,328.736,277.506Z"/><path class="cls-1" d="M464.029,237.062c0,7.09-.022,14.179.015,21.269a29.359,29.359,0,0,0,.37,4.348c.565,3.645,2.835,5.879,6.41,6.755a7.274,7.274,0,0,1,2.757,1.638,2.52,2.52,0,0,1,.6,3.057,2.6,2.6,0,0,1-2.653,1.65,46.861,46.861,0,0,1-5.834-.118c-6.528-.789-13.038-.4-19.557.049a27.3,27.3,0,0,1-3.75.051c-2.393-.167-3.38-2.192-2-4.123a6.631,6.631,0,0,1,2.035-2.026,8.2,8.2,0,0,0,4.491-7.484c.136-10.91.1-21.823.028-32.735-.022-3.291-2.037-5.207-5.3-5.351a4.035,4.035,0,0,1-3.456-1.537,3.032,3.032,0,0,1,1.84-4.848c3.242-.726,6.531-1.3,9.7-2.253a69.98,69.98,0,0,0,7.046-2.949c1.405-.6,2.8-1.223,4.229-1.753a1.784,1.784,0,0,1,2.419,1.046,8.339,8.339,0,0,1,.587,3C464.052,222.188,464.031,229.625,464.029,237.062Z"/><path class="cls-1" d="M711.658,237.931c0,7.578.188,15.163-.078,22.732a9.136,9.136,0,0,0,6.658,8.709,3.791,3.791,0,0,1,3.115,4.826c-.179,1.192-1.319,1.522-2.427,1.542a36.659,36.659,0,0,1-4.793-.031,107.7,107.7,0,0,0-20.814.019,12.256,12.256,0,0,1-3.732-.1,3.1,3.1,0,0,1-2.08-1.61,4.655,4.655,0,0,1,.668-2.813,3.284,3.284,0,0,1,1.5-1.4c4.1-1.917,5.046-5.708,5.137-9.551.228-9.589.109-19.187.047-28.781a12.445,12.445,0,0,0-.786-3.858c-.756-2.207-2.172-3.689-4.746-3.606a7.546,7.546,0,0,1-1.863-.19,2.909,2.909,0,0,1-2.414-2.975,2.952,2.952,0,0,1,2.313-3.058c2.012-.529,4.053-.954,6.05-1.532,2.921-.845,5.846-1.7,8.707-2.721a49.446,49.446,0,0,0,4.856-2.333c2.983-1.453,4.661-.422,4.672,2.953C711.679,222.079,711.66,230.005,711.658,237.931Z"/><path class="cls-1" d="M455.008,200.985a14.712,14.712,0,0,1-3.218-1.588,40.755,40.755,0,0,1-4.537-4.566c-3.062-3.606-3.1-6.61-.095-10.485a58.423,58.423,0,0,1,4.827-5.438c2.288-2.3,4.5-2.406,6.73-.127a44.159,44.159,0,0,1,5.365,6.6,6.474,6.474,0,0,1-.476,8.3,71.333,71.333,0,0,1-5.4,5.741A12.482,12.482,0,0,1,455.008,200.985Z"/><path class="cls-1" d="M702.328,200.854a10.021,10.021,0,0,1-2.8-1.37,76.679,76.679,0,0,1-5.851-6.188,6.1,6.1,0,0,1,.007-7.4,69.84,69.84,0,0,1,6.393-7.363c2.024-2.025,3.666-1.837,5.807.133,2.832,2.6,5.428,5.4,6.775,9.088a4.448,4.448,0,0,1,.132,2.746c-1.434,4.209-4.82,6.859-8.067,9.57A7.7,7.7,0,0,1,702.328,200.854Z"/></svg>