<?xml version="1.0" encoding="utf-8"?>
<!-- Generator: Adobe Illustrator 25.4.1, SVG Export Plug-In . SVG Version: 6.00 Build 0)  -->
<svg version="1.1" id="Layer_1" xmlns="http://www.w3.org/2000/svg" xmlns:xlink="http://www.w3.org/1999/xlink" x="0px" y="0px"
	 viewBox="0 0 300 300" style="enable-background:new 0 0 300 300;" xml:space="preserve">
<style type="text/css">
	.st0{fill:#4E6245;}
	.st1{fill:#FFFFFF;}
	.st2{fill:#7AB870;}
	.st3{opacity:0.2;fill:#FFFFFF;}
	.st4{fill:#4EA641;}
	.st5{fill:#FF8C00;}
	.st6{fill:#344154;}
	
		.st7{clip-path:url(#SVGID_00000156562355178790403590000009002730114452247976_);fill:url(#SVGID_00000116203803016734729960000015502811135562754732_);}
	.st8{clip-path:url(#SVGID_00000156562355178790403590000009002730114452247976_);fill:#90C089;}
	.st9{clip-path:url(#SVGID_00000156562355178790403590000009002730114452247976_);fill:#4EA641;}
	.st10{fill:#90C089;}
	.st11{fill:#A1C699;}
	.st12{fill:#8AC180;}
	.st13{fill:#76A36D;}
</style>
<path class="st0" d="M258.4,238.7c-6.3-11.8-12.9-23.5-19.9-34.9c-3.1-5.1-4.4-10-3.9-15.9c2.6-28.9,4.8-57.7,7.5-86.4
	c0.5-4.2,3.1-8.4,5-12.5c3-6.3,6.9-12.4,9.3-18.9c8.8-23.8-4.4-44.2-29.8-45c-11.5-0.4-23.5,0.6-34.6,3.4
	c-49.8,12.5-92.8,37.2-129,73.6c-41.6,46.2-18.3,66.1-12.5,70.1c0.7,0.5,1.2,0.7,1.2,0.7c12.8,7.5,23.6,8.7,40.6,6.9
	c3.6-0.4,7.7,0.7,11.1,2.3c26.3,12,52.3,24.5,78.6,36.5c5.5,2.5,9.4,5.8,12.2,11c6.3,11.4,12.7,22.8,19.7,33.8
	c7.4,11.6,22.3,14.7,34.6,7.6C260.3,264.2,264.8,250.6,258.4,238.7z M222.2,69.1c-11,16-25.7,28-41.5,38.8
	c-24.8,17.1-51.1,31.3-80.7,38.3c-6.9,1.5-14.1,2.8-21,2.5c-13.3-0.5-17.4-7.5-10.4-18.8c5.5-8.9,12.2-17.5,20-24.3
	c28.2-24.5,59.9-43.4,96-54.3c4.4-1.4,8.8-2.5,13.4-3.3c3.8-0.7,7.8-0.8,12.3-1.3c5.2,0.5,12.3-0.9,15.4,5.6
	C228.7,58.3,225.7,64,222.2,69.1z"/>
</svg>
