<?xml version="1.0" encoding="utf-8"?>
<!-- Generator: Adobe Illustrator 25.4.1, SVG Export Plug-In . SVG Version: 6.00 Build 0)  -->
<svg version="1.1" id="Layer_1" xmlns="http://www.w3.org/2000/svg" xmlns:xlink="http://www.w3.org/1999/xlink" x="0px" y="0px"
	 viewBox="0 0 703.6 736" style="enable-background:new 0 0 703.6 736;" xml:space="preserve">
<style type="text/css">
	.st0{fill:#3C3C3B;}
	.st1{fill:#4E6245;}
	.st2{fill:#FFFFFF;}
	.st3{fill:#7AB870;}
	.st4{opacity:0.2;fill:#FFFFFF;}
	.st5{fill:#4EA641;}
	.st6{fill:#FF8C00;}
	.st7{fill:#344154;}
	.st8{fill:url(#SVGID_1_);}
	.st9{fill:#90C089;}
	.st10{fill:none;}
	
		.st11{clip-path:url(#SVGID_00000023240774529670801480000004987053328594804927_);fill:url(#SVGID_00000023983913390435383580000013156460286456554390_);}
	.st12{clip-path:url(#SVGID_00000023240774529670801480000004987053328594804927_);fill:#90C089;}
	.st13{clip-path:url(#SVGID_00000023240774529670801480000004987053328594804927_);fill:#4EA641;}
</style>
<g>
	<path class="st9" d="M636.1,560.1l-119.9,89l-91.9,68.2c-27.3,20.3-63.4,24.4-94.6,10.9l-242-104.8c-31.2-13.5-52.9-42.7-56.8-76.5
		l-30.2-262c-3.9-33.8,10.5-67.1,37.9-87.4L219.9,62.8l30.6-22.7c27.3-20.1,63.2-24.2,94.4-10.7l242,104.8
		c31.2,13.5,52.9,42.7,56.8,76.5l30.2,262C677.8,506.5,663.4,539.8,636.1,560.1z"/>
	<path class="st5" d="M665.1,538.6l-119.9,89c-11.6-7.5-22.2-17.2-30.9-29l-290-390.7C185.1,155,196.1,80.5,248.9,41.3l30.6-22.7
		c27.3-20.1,63.2-24.2,94.4-10.7l242,104.8c31.2,13.5,52.9,42.7,56.8,76.5l30.2,262C706.8,485,692.4,518.3,665.1,538.6z"/>
</g>
</svg>
