<?xml version="1.0" encoding="utf-8"?>
<!-- Generator: Adobe Illustrator 25.4.1, SVG Export Plug-In . SVG Version: 6.00 Build 0)  -->
<svg version="1.1" id="Layer_1" xmlns="http://www.w3.org/2000/svg" xmlns:xlink="http://www.w3.org/1999/xlink" x="0px" y="0px"
	 viewBox="0 0 300 300" style="enable-background:new 0 0 300 300;" xml:space="preserve">
<style type="text/css">
	.st0{fill:#4E6245;}
	.st1{fill:#FFFFFF;}
	.st2{fill:#7AB870;}
	.st3{opacity:0.2;fill:#FFFFFF;}
	.st4{fill:#4EA641;}
	.st5{fill:#E95096;}
	.st6{fill:#344154;}
	.st7{fill:#FF8C00;}
	
		.st8{clip-path:url(#SVGID_00000011738190638307852230000010992738930480900279_);fill:url(#SVGID_00000015348388146251951970000011179214188920405662_);}
	.st9{clip-path:url(#SVGID_00000011738190638307852230000010992738930480900279_);fill:#90C089;}
	.st10{clip-path:url(#SVGID_00000011738190638307852230000010992738930480900279_);fill:#4EA641;}
	.st11{fill:#90C089;}
	.st12{fill:#A1C699;}
	.st13{fill:#8AC180;}
	.st14{fill:#76A36D;}
	.st15{fill:#3C3C3B;}
	.st16{fill:none;stroke:#FFFFFF;stroke-miterlimit:10;}
	.st17{fill-rule:evenodd;clip-rule:evenodd;fill:#7AB870;}
	.st18{fill-rule:evenodd;clip-rule:evenodd;fill:#4E6245;}
	.st19{fill-rule:evenodd;clip-rule:evenodd;fill:#FF8C00;}
</style>
<g>
	<rect x="27.8" y="92.5" class="st5" width="209" height="20.8"/>
	<g>
		<path class="st6" d="M103.2,175.8c-0.5,0-1-0.1-1.5-0.4l-29.1-17.8c-0.8-0.5-1.3-1.4-1.3-2.4c0-1,0.5-1.9,1.3-2.4l29.1-17.8
			c1.3-0.8,3.1-0.4,3.9,0.9c0.8,1.3,0.4,3.1-0.9,3.9l-25.2,15.4l25.2,15.4c1.3,0.8,1.7,2.5,0.9,3.9
			C105.1,175.3,104.2,175.8,103.2,175.8z"/>
		<path class="st6" d="M161.4,175.8c-0.9,0-1.9-0.5-2.4-1.3c-0.8-1.3-0.4-3.1,0.9-3.9l25.2-15.4l-25.2-15.4
			c-1.3-0.8-1.7-2.5-0.9-3.9c0.8-1.3,2.5-1.7,3.9-0.9l29.1,17.8c0.8,0.5,1.3,1.4,1.3,2.4c0,1-0.5,1.9-1.3,2.4l-29.1,17.8
			C162.4,175.6,161.9,175.8,161.4,175.8z"/>
		<path class="st6" d="M124.9,187.7c-0.2,0-0.5,0-0.7-0.1c-1.5-0.4-2.4-1.9-2-3.4l14.8-59.5c0.4-1.5,1.9-2.4,3.4-2.1
			c1.5,0.4,2.4,1.9,2,3.4l-14.8,59.5C127.3,186.8,126.2,187.7,124.9,187.7z"/>
	</g>
	<g>
		<path class="st6" d="M236.8,255.9c-21,0-38.2-17.1-38.2-38.2c0-21,17.1-38.2,38.2-38.2s38.2,17.1,38.2,38.2
			C275,238.8,257.9,255.9,236.8,255.9z M236.8,185.2c-17.9,0-32.6,14.6-32.6,32.6c0,17.9,14.6,32.6,32.6,32.6s32.6-14.6,32.6-32.6
			C269.4,199.8,254.8,185.2,236.8,185.2z"/>
		<g>
			<path class="st6" d="M234.1,234.4l-14.3-12.7c-1.2-1-1.3-2.8-0.2-4c1-1.2,2.8-1.3,4-0.2l9.9,8.8l17.7-21.7c1-1.2,2.8-1.4,4-0.4
				c1.2,1,1.4,2.8,0.4,4L234.1,234.4z"/>
		</g>
	</g>
	<path class="st6" d="M201.5,220.6H31.7c-3.7,0-6.7-3-6.7-6.7V50.8c0-3.7,3-6.7,6.7-6.7h201.2c3.7,0,6.7,3,6.7,6.7v131.6H234V50.8
		c0-0.6-0.5-1.1-1.1-1.1H31.7c-0.6,0-1.1,0.5-1.1,1.1v163.1c0,0.6,0.5,1.1,1.1,1.1h169.8V220.6z"/>
	<path class="st6" d="M53.9,78.3c-4.9,0-8.9-4-8.9-8.9c0-4.9,4-8.9,8.9-8.9s8.9,4,8.9,8.9C62.8,74.3,58.8,78.3,53.9,78.3z
		 M53.9,66.2c-1.8,0-3.2,1.5-3.2,3.2c0,1.8,1.5,3.2,3.2,3.2c1.8,0,3.2-1.5,3.2-3.2C57.2,67.7,55.7,66.2,53.9,66.2z"/>
	<path class="st6" d="M80.6,78.3c-4.9,0-8.9-4-8.9-8.9c0-4.9,4-8.9,8.9-8.9c4.9,0,8.9,4,8.9,8.9C89.4,74.3,85.4,78.3,80.6,78.3z
		 M80.6,66.2c-1.8,0-3.2,1.5-3.2,3.2c0,1.8,1.5,3.2,3.2,3.2c1.8,0,3.2-1.5,3.2-3.2C83.8,67.7,82.3,66.2,80.6,66.2z"/>
	<path class="st6" d="M107.2,78.3c-4.9,0-8.9-4-8.9-8.9c0-4.9,4-8.9,8.9-8.9c4.9,0,8.9,4,8.9,8.9C116,74.3,112.1,78.3,107.2,78.3z
		 M107.2,66.2c-1.8,0-3.2,1.5-3.2,3.2c0,1.8,1.5,3.2,3.2,3.2c1.8,0,3.2-1.5,3.2-3.2C110.4,67.7,109,66.2,107.2,66.2z"/>
	<rect x="27.8" y="89.7" class="st6" width="209" height="5.6"/>
	<path class="st6" d="M216.7,72.5h-83.3c-1.6,0-2.8-1.3-2.8-2.8s1.3-2.8,2.8-2.8h83.3c1.6,0,2.8,1.3,2.8,2.8S218.2,72.5,216.7,72.5z
		"/>
</g>
</svg>
