<?xml version="1.0" encoding="utf-8"?>
<!-- Generator: Adobe Illustrator 25.4.1, SVG Export Plug-In . SVG Version: 6.00 Build 0)  -->
<svg version="1.1" id="Layer_1" xmlns="http://www.w3.org/2000/svg" xmlns:xlink="http://www.w3.org/1999/xlink" x="0px" y="0px"
	 viewBox="0 0 300 300" style="enable-background:new 0 0 300 300;" xml:space="preserve">
<style type="text/css">
	.st0{fill:#4E6245;}
	.st1{fill:#FFFFFF;}
	.st2{fill:#7AB870;}
	.st3{opacity:0.2;fill:#FFFFFF;}
	.st4{fill:#4EA641;}
	.st5{fill:#FF8C00;}
	.st6{fill:#344154;}
	
		.st7{clip-path:url(#SVGID_00000001631175855143662930000008782645689761484221_);fill:url(#SVGID_00000026161998639338609480000000621342377724186549_);}
	.st8{clip-path:url(#SVGID_00000001631175855143662930000008782645689761484221_);fill:#90C089;}
	.st9{clip-path:url(#SVGID_00000001631175855143662930000008782645689761484221_);fill:#4EA641;}
	.st10{fill:#90C089;}
	.st11{fill:#A1C699;}
	.st12{fill:#8AC180;}
	.st13{fill:#76A36D;}
	.st14{fill:#3C3C3B;}
	.st15{fill:none;stroke:#FFFFFF;stroke-miterlimit:10;}
</style>
<g>
	<path class="st1" d="M110.3,98.3c0,8-5.9,14.3-15.4,14.3c-9.1,0-15-6.3-14.9-14.3c0-8.2,6-14.4,15.2-14.4
		C104.4,83.9,110.2,90,110.3,98.3z M80.8,216.1v-92.2h28.7v92.2H80.8z"/>
	<path class="st1" d="M132.4,153.3c0-11.5-0.4-21.2-0.8-29.5h24.9l1.3,12.8h0.6c3.7-5.9,13.1-14.9,28.5-14.9c18.8,0,33,12.6,33,39.7
		v54.6h-28.7V165c0-11.9-4.2-20-14.6-20c-7.9,0-12.6,5.5-14.5,10.8c-0.7,1.8-1,4.5-1,7.1v53.2h-28.7V153.3z"/>
</g>
</svg>
