<?xml version="1.0" encoding="utf-8"?>
<!-- Generator: Adobe Illustrator 25.4.1, SVG Export Plug-In . SVG Version: 6.00 Build 0)  -->
<svg version="1.1" id="Layer_1" xmlns="http://www.w3.org/2000/svg" xmlns:xlink="http://www.w3.org/1999/xlink" x="0px" y="0px"
	 viewBox="0 0 375 77.3" style="enable-background:new 0 0 375 77.3;" xml:space="preserve">
<style type="text/css">
	.st0{fill:#4E6245;}
	.st1{fill:#FFFFFF;}
</style>
<g>
	<path class="st1" d="M180.3,11.7c-1.2,0-2.2,0-3.5,0c0-0.7,0-1.4,0-2.1c-0.1-1.6-0.8-2.4-2.5-2.5c-1.9-0.1-3.8,0.9-4.7,3.2
		c-0.8,2-1.2,4.1-1.7,6.2c-0.2,0.8-0.3,1.6-0.5,2.7c6.9,0,13.7,0,20.7,0c-0.8,3.8-1.6,7.3-2.3,10.8c-1.1,5.3-2.3,10.5-3.3,15.8
		c-0.2,1.1-0.2,2.2,0,3.3c0.3,1.4,1.3,1.9,2.7,1.7c1.6-0.3,2.7-1.3,3.6-2.6c1.7-2.4,2.1-5.3,2.7-8.1c1.5-6.8,2.9-13.6,4.4-20.6
		c3.7,0,7.4,0,11.3,0c-0.4,1.9-0.7,3.7-1.1,5.5c-1.5,7.3-3.1,14.6-4.6,21.9c-0.3,1.3-0.4,2.6,0.8,3.5c1.2,0.9,2.7,0.8,4,0.1
		c2.4-1.2,3.6-3.5,4.2-6c1.5-6.6,2.8-13.2,4.2-19.8c0.4-1.7,0.8-3.4,1.2-5.2c3.8,0,7.5,0,11.3,0c-0.2,1.1-0.4,2.1-0.6,3.4
		c2-1.9,4.1-3.3,6.6-3.6c1.5-0.2,3.1-0.3,4.6,0c4.8,1.1,6.8,4.3,6.3,9.8c-0.3,3-1.1,6-1.7,9c-0.5,2.3-1.1,4.6-1.6,6.9
		c-0.2,0.9-0.3,1.8-0.3,2.7c0,2.4,1.5,3.6,3.8,3.1c1.6-0.3,2.7-1.3,3.6-2.7c1.5-2.3,2.1-4.8,2.7-7.4c1.4-6.8,2.9-13.6,4.3-20.5
		c0.1-0.3,0.2-0.5,0.4-0.8c3.6,0,7.3,0,11.1,0c-0.2,1.1-0.3,2.2-0.6,3.5c2-2,4.1-3.4,6.7-3.7c1.4-0.2,3-0.3,4.4,0
		c4.3,0.9,6.6,3.6,6.4,8.1c-0.2,3.7-1.1,7.3-1.7,10.9c-0.5,2.4-1.2,4.7-1.7,7.1c-0.2,0.9-0.2,1.8-0.2,2.7c0.1,2.1,1.2,3,3.3,2.9
		c2.6-0.2,5-2.9,5.2-5.7c0.4-6.5,2.1-12.7,5.9-18.1c4.1-5.7,9.6-8.7,16.8-8.1c1.7,0.1,3.3,0.7,4.6,1.7c1.3,1,2,2.3,2.2,3.9
		c0.7,5.9-1.9,10.3-6.4,13.7c-3.3,2.5-7.1,3.6-11.2,4.2c0,1.9-0.2,3.8,0,5.6c0.2,2.2,1.7,3.4,4,3.6c4.8,0.5,8.6-1.4,12-4.5
		c1.9-1.8,3-3.7,3.5-6.4c2.4-11.8,5.1-23.6,7.7-35.3c0-0.1,0.1-0.1,0.3-0.4c3.5-0.4,7.3-0.9,11.3-1.4c-1.6,7.6-3.2,15-4.9,22.8
		c0.9-0.9,1.4-1.4,1.9-1.9c7.2-7.2,15.7-12.1,25.6-14.6c2.2-0.6,4.6-0.7,6.9-0.7c5,0.2,7.7,4.2,5.9,8.9c-0.5,1.3-1.3,2.5-1.9,3.8
		c-0.4,0.8-0.9,1.6-1,2.5c-0.5,5.7-1,11.4-1.5,17.1c-0.1,1.2,0.2,2.1,0.8,3.2c1.4,2.3,2.7,4.6,3.9,6.9c1.3,2.4,0.4,5.1-2,6.4
		c-2.4,1.4-5.4,0.8-6.9-1.5c-1.4-2.2-2.6-4.4-3.9-6.7c-0.6-1-1.3-1.7-2.4-2.2c-5.2-2.4-10.4-4.9-15.6-7.3c-0.7-0.3-1.5-0.5-2.2-0.5
		c-4.2,0.4-6.5,0-10-2.7c-0.7,3.4-1.5,6.7-2.1,10.1c-0.3,2,0.9,3.2,2.9,3.3c0.8,0,1.7-0.1,2.5-0.2c0,4.2-3,7.6-7.1,7.9
		c-5.6,0.5-8.4-1.8-9.9-8.8c-1.1,1.1-2.2,2.2-3.3,3.1c-4.7,4.1-10.1,6.2-16.4,5.6c-4.1-0.4-7.5-2.2-9.3-6.3c-0.8,1-1.5,1.8-2.2,2.6
		c-3.1,3.3-7,4.4-11.3,3.6c-4.8-0.8-7.5-5.3-6.5-10.8c0.9-4.7,2-9.3,2.9-13.9c0.3-1.6,0.4-3.3,0.3-5c-0.2-2.1-1.8-3.1-3.7-2.2
		c-1.1,0.5-2.1,1.4-2.8,2.4c-1.7,2.3-2.2,5.1-2.7,7.8c-1.4,6.8-2.9,13.6-4.3,20.4c-0.1,0.3-0.2,0.5-0.4,0.8c-3.6,0-7.3,0-11.1,0
		c0.2-1.1,0.3-2,0.5-3.1c-1,0.7-1.9,1.5-2.9,2.1c-2.7,1.7-5.7,1.9-8.7,1.2c-3.9-0.8-6.4-3.9-6.3-7.9c0.1-3.2,0.9-6.3,1.4-9.5
		c0.6-3.4,1.3-6.7,1.9-10.1c0.1-0.7,0.1-1.5-0.1-2.3c-0.3-2-1.9-3-3.7-2.1c-1.1,0.5-2.2,1.5-2.9,2.5c-1.7,2.2-2.1,5-2.7,7.6
		c-1.4,6.8-2.9,13.7-4.3,20.5c-0.1,0.3-0.2,0.5-0.3,0.8c-3.6,0-7.3,0-11.1,0c0.2-1.2,0.4-2.3,0.6-3.7c-0.6,0.5-1,0.8-1.3,1.1
		c-3,2.6-6.5,3.5-10.4,3c-2.6-0.4-4.4-2-5.4-4.5c-0.2-0.6-0.4-1.3-0.6-2c-1.3,1.4-2.5,2.8-3.9,4c-2.7,2.4-6,3.1-9.4,2.5
		c-3.7-0.6-6.2-3.7-6.4-7.8c-0.2-3,0.4-5.8,1.1-8.7c1.3-6.2,2.6-12.4,4-18.6c0-0.1,0-0.3-0.1-0.5c-3,0-6,0-9.1,0
		c-0.7,3.3-1.5,6.5-2.2,9.8c-2.3,10.7-4.6,21.4-6.9,32.1c-0.6,2.8-1.6,5.5-3.4,7.8c-3,4-8.6,5.9-13.3,4.5c-3.3-1-5.6-3-6.3-6.4
		c-0.7-3.7,0.4-7.1,3.7-9.1c2.6-1.6,5.6-2.5,8.4-3.8c0.3-0.1,0.6-0.2,1.1-0.4c2.4-11.5,4.9-23,7.4-34.7c-1.8,0-3.5,0-5.3,0
		c0.2-1.2,0.4-2.1,0.6-3.2c1.8,0,3.6,0,5.4,0c0.5-2.3,1-4.5,1.4-6.6c1-4.2,2.6-8,6.4-10.4c3-2,6.4-2.8,10-1.9
		C179.2,1.7,181.7,6.1,180.3,11.7z M364.9,13.6c-0.9,0.1-1.7,0.1-2.4,0.2c-0.9,0.2-1.8,0.4-2.6,0.7c-7.2,2.2-13.4,5.9-19,10.8
		c-1.6,1.4-2.9,3.1-4,4.8c-1.4,2.2-0.6,3.6,2.1,3.7c1.4,0.1,2.8-0.2,4.2-0.5c5.9-1.4,11.1-4.2,16-7.6c3.1-2.2,6.1-4.5,8.2-7.7
		c0.7-1,1.3-2.1,0.7-3.3C367.3,13.5,365.9,13.8,364.9,13.6z M300.4,38.6c5.3-0.6,10.4-4.8,11.1-11.6c0.1-1.4,0.2-3-1.3-3.7
		c-1.4-0.7-2.6,0.3-3.5,1.3C303.2,28.5,301.7,33.3,300.4,38.6z M147.3,60.3c-0.1-0.1-0.3-0.3-0.4-0.4c-1.8,1-3.6,1.8-5.3,2.9
		c-1.4,0.9-2.2,2.3-2.5,3.9c-0.3,1.4,0.2,2.3,1.3,3c1,0.7,2.6,0.7,3.5-0.3c0.7-0.8,1.4-1.8,1.8-2.8
		C146.2,64.7,146.7,62.5,147.3,60.3z"/>
	<path class="st1" d="M12.7,36.8c0,7.2,0,14,0,21c-4.3,0-8.4,0-12.7,0c0-17.5,0-35,0-52.7c11.8,0,23.5,0,35.3,0c0,3.1,0,6.3,0,9.7
		c-7.5,0-15,0-22.5,0c0,4.1,0,8,0,12.1c6.9,0,13.6,0,20.5,0c0,3.4,0,6.5,0,9.8C26.5,36.8,19.8,36.8,12.7,36.8z"/>
	<path class="st1" d="M101.4,57.8c-4.2,0-8.2,0-12.5,0c-0.4-0.9-0.8-2-1.2-3.1c-5.8,5.1-13.6,5.2-19.2,0.4c-5.3-4.6-5-14.8,1.9-18.5
		c3.2-1.7,6.6-2.4,10.1-2.6c2.1-0.1,4.2,0,6.6,0c0.3-2,0.3-4-0.7-5.7c-1.1-1.9-3-2.1-5-1.8c-1.7,0.2-2.8,1.2-3.2,2.9
		c-0.1,0.4-0.2,0.8-0.3,1.2c-4.1,0-8,0-12.1,0c-0.1-2.6,0.7-4.8,2.2-6.7c1-1.2,2.2-2.3,3.5-3c6.4-3.7,13.2-4,20.1-1.4
		c5.1,2,7.7,6.1,7.9,11.6c0.1,3.1,0,6.3,0.1,9.4C99.8,46.3,98.8,52.2,101.4,57.8z M87.2,40.4c-1.6,0-2.9-0.1-4.1,0
		c-1.2,0.2-2.5,0.5-3.6,1c-1.7,0.9-2.6,3.4-2.2,5.5c0.3,1.6,1.6,2.8,3.4,3c2.2,0.2,4.2-0.4,5.7-2.1c0.4-0.4,0.8-1.1,0.8-1.6
		C87.3,44.4,87.2,42.5,87.2,40.4z"/>
	<path class="st1" d="M118.5,57.8c-4.3,0-8.2,0-12.2,0c0-13.1,0-26,0-39.1c3.7,0,7.4,0,11.3,0c0.2,1.3,0.4,2.7,0.6,4.2
		c0.3-0.3,0.6-0.5,0.7-0.7c4-4.2,8.9-5,14.3-3.9c3.3,0.7,5.7,2.7,6.9,5.8c0.7,1.9,1.4,4,1.4,6.1c0.2,9,0.1,18,0.1,27.1
		c0,0.1-0.1,0.3-0.2,0.5c-3.9,0-7.9,0-12.1,0c0-0.8,0-1.5,0-2.2c0-7.1,0-14.1,0-21.2c0-0.6,0-1.3,0-1.9c-0.2-2.1-0.6-4.1-3-4.8
		c-2.8-0.9-6-0.2-7.3,1.7c-0.4,0.6-0.6,1.5-0.6,2.3c0,7.9,0,15.8,0,23.7C118.5,56.2,118.5,56.9,118.5,57.8z"/>
	<path class="st1" d="M39.6,18.6c3.9,0,7.5,0,11.4,0c0.1,1.4,0.3,2.9,0.5,4.9c2.9-4.9,6.7-6.5,11.8-5.3c0,3.8,0,7.5,0,11.4
		c-0.8-0.1-1.4-0.1-2-0.1c-1.8,0.1-3.7,0-5.4,0.3c-2.9,0.6-4.1,2.2-4.1,5.2c0,6.8,0,13.6,0,20.3c0,0.8,0,1.5,0,2.4
		c-4.1,0-8.1,0-12.2,0C39.6,44.8,39.6,31.8,39.6,18.6z"/>
</g>
</svg>
