<?xml version="1.0" encoding="utf-8"?>
<!-- Generator: Adobe Illustrator 25.4.1, SVG Export Plug-In . SVG Version: 6.00 Build 0)  -->
<svg version="1.1" id="Layer_1" xmlns="http://www.w3.org/2000/svg" xmlns:xlink="http://www.w3.org/1999/xlink" x="0px" y="0px"
	 viewBox="0 0 300 300" style="enable-background:new 0 0 300 300;" xml:space="preserve">
<style type="text/css">
	.st0{fill:#4E6245;}
	.st1{fill:#FFFFFF;}
	.st2{fill:#7AB870;}
	.st3{opacity:0.2;fill:#FFFFFF;}
	.st4{fill:#4EA641;}
	.st5{fill:#FF8C00;}
	.st6{fill:#344154;}
	
		.st7{clip-path:url(#SVGID_00000180324152530136553660000002796366952935920792_);fill:url(#SVGID_00000138554733673952741860000012042849581388754846_);}
	.st8{clip-path:url(#SVGID_00000180324152530136553660000002796366952935920792_);fill:#90C089;}
	.st9{clip-path:url(#SVGID_00000180324152530136553660000002796366952935920792_);fill:#4EA641;}
	.st10{fill:#90C089;}
</style>
<g>
	<path class="st1" d="M133.2,176.7c32.1,0,58.2-19.2,58.2-43s-26-43-58.2-43S75,110.1,75,133.8c0,13.5,8.5,25.6,21.7,33.5
		c-0.7,5.1-3.7,12.2-13.7,19.4c0,0,16,2.7,33.4-11.7C121.7,176.1,127.3,176.7,133.2,176.7z"/>
	<path class="st1" d="M203.3,189.6c13.2-7.9,21.7-19.9,21.7-33.4c0-16-11.7-29.9-29.2-37.2c2.1,4.7,3.2,9.7,3.2,14.9
		c0,26.8-29.5,48.6-65.9,48.6c-4.5,0-9-0.4-13.3-1c10.6,10.7,27.7,17.7,47,17.7c5.8,0,11.4-0.6,16.7-1.8
		C200.9,211.7,217,209,217,209C207,201.8,204,194.7,203.3,189.6z"/>
</g>
</svg>
