<?xml version="1.0" encoding="utf-8"?>
<!-- Generator: Adobe Illustrator 25.4.1, SVG Export Plug-In . SVG Version: 6.00 Build 0)  -->
<svg version="1.1" id="Layer_1" xmlns="http://www.w3.org/2000/svg" xmlns:xlink="http://www.w3.org/1999/xlink" x="0px" y="0px"
	 viewBox="0 0 300 300" style="enable-background:new 0 0 300 300;" xml:space="preserve">
<style type="text/css">
	.st0{fill:#4E6245;}
	.st1{fill:#FFFFFF;}
	.st2{fill:#7AB870;}
	.st3{opacity:0.2;fill:#FFFFFF;}
	.st4{fill:#4EA641;}
	.st5{fill:#E95096;}
	.st6{fill:#344154;}
	.st7{fill:#FF8C00;}
	
		.st8{clip-path:url(#SVGID_00000155124399358200787460000003806757512328916128_);fill:url(#SVGID_00000106837537776522596550000005513387917704684672_);}
	.st9{clip-path:url(#SVGID_00000155124399358200787460000003806757512328916128_);fill:#90C089;}
	.st10{clip-path:url(#SVGID_00000155124399358200787460000003806757512328916128_);fill:#4EA641;}
	.st11{fill:#90C089;}
	.st12{fill:#A1C699;}
	.st13{fill:#8AC180;}
	.st14{fill:#76A36D;}
	.st15{fill:#3C3C3B;}
	.st16{fill:none;stroke:#FFFFFF;stroke-miterlimit:10;}
	.st17{fill-rule:evenodd;clip-rule:evenodd;fill:#7AB870;}
	.st18{fill-rule:evenodd;clip-rule:evenodd;fill:#4E6245;}
	.st19{fill-rule:evenodd;clip-rule:evenodd;fill:#FF8C00;}
</style>
<g>
	<rect x="79.6" y="74.3" class="st5" width="90" height="12.3"/>
	<g>
		<g>
			<path class="st5" d="M119.6,218.2l0-7.1l-0.9-0.1c-2-0.1-3.7-0.5-5.3-0.9c-1.4-0.4-2.6-0.7-3.9-1.2l0.1-6.5c1.8,0.7,3,1,5.3,1.5
				c2.8,0.6,5,0.9,7.4,0.9c3.8,0,6.9-1.1,9.2-3.2c2.4-2.1,3.6-4.9,3.6-8.2c0-2-0.3-3.8-1-5.4c-0.7-1.6-1.6-2.9-2.8-3.9
				c-1.2-1-3.6-2.3-7.6-4.2l-5.4-2.5c-4.4-2-7.5-4.5-9.2-7.2c-1.7-2.8-2.6-6.2-2.6-10.1c0-4,1.3-7.5,3.8-10.5c2.6-3,5.1-4.2,8.7-5.3
				l0.7-0.2l0.1-7.4h6.8l0,7.2l0.9,0c3.1,0.1,6,0.9,8.9,2.4l0,6.3c-1.2-0.6-2.6-1.2-4.3-1.8c-2.6-0.9-5-1.3-7.3-1.3
				c-3.4,0-6.1,1-8,2.9c-2,1.9-3,4.5-3,7.5c0,1.8,0.4,3.5,1,5.1c0.7,1.5,1.7,2.9,3,3.9c1.3,1,3.6,2.4,7.2,4.1l4.2,2
				c4.6,2.1,8,4.8,10.1,7.9c2.1,3,3.1,7,3.1,11.9c0,3.9-1.4,7.3-4.2,10.3c-2.9,3.1-6,4.6-10.8,5.5l-0.8,0.1l0,7.6H119.6z"/>
		</g>
		<path class="st6" d="M124.4,270c-82,0-99.3-39.8-99.4-73.1c0-20.6,7.1-41.5,20-58.9l39.4-53h79.9l28,37.7l-5.1,3.8l-26.1-35.1
			H87.6l-37.5,50.5C38,158,31.3,177.6,31.4,196.8c0.1,43.7,32.3,66.8,93,66.8c31.5,0,44.7-0.6,44.8-0.6l0.3,6.4
			C169.3,269.4,156,270,124.4,270z"/>
		<path class="st6" d="M166.2,91.3H82.5c-4.3,0-7.8-3.5-7.8-7.8v-6.2c0-4.3,3.5-7.8,7.8-7.8h83.7c4.3,0,7.8,3.5,7.8,7.8v6.2
			C174,87.7,170.5,91.3,166.2,91.3z M82.5,75.8c-0.8,0-1.4,0.7-1.4,1.4v6.2c0,0.8,0.7,1.4,1.4,1.4h83.7c0.8,0,1.4-0.7,1.4-1.4v-6.2
			c0-0.8-0.7-1.4-1.4-1.4H82.5z"/>
		<path class="st6" d="M160.9,75.8H88.7l-29-28.1l11.5-11.5c4-4,9.2-6.1,14.8-6.1c5.6,0,10.8,2.2,14.8,6.1l5.2,5.2l1-1
			c4.7-4.7,11-7.4,17.8-7.4c6.7,0,13,2.6,17.8,7.4l1,1l5.2-5.2c8.2-8.2,21.4-8.2,29.6,0l11.5,11.5L160.9,75.8z M91.3,69.4h67.1
			l22.5-21.8l-7-7c-5.7-5.7-14.9-5.7-20.6,0l-9.7,9.7l-5.5-5.5c-3.5-3.5-8.2-5.5-13.2-5.5c-5,0-9.7,1.9-13.2,5.5l-5.5,5.5l-9.7-9.7
			c-5.7-5.7-14.9-5.7-20.6,0l-7,7L91.3,69.4z"/>
		<path class="st6" d="M275,269.4H166.1V121.3H275V269.4z M172.5,263h96.1V127.7h-96.1V263z"/>
		<path class="st6" d="M260.6,160.2h-80.1v-24.5h80.1V160.2z M186.9,153.8h67.4v-11.8h-67.4V153.8z"/>
		<path class="st6" d="M260.6,254h-80.1v-78.1h80.1V254z M186.9,247.7h67.4v-65.4h-67.4V247.7z"/>
		<rect x="183.7" y="199.8" class="st6" width="73.7" height="6.4"/>
		<rect x="183.7" y="223.8" class="st6" width="73.7" height="6.4"/>
		<rect x="183.7" y="247.7" class="st6" width="73.7" height="6.4"/>
		<rect x="180.5" y="179.1" class="st6" width="6.4" height="23.9"/>
		<rect x="229.7" y="179.1" class="st6" width="6.4" height="71.7"/>
		<rect x="254.2" y="179.1" class="st6" width="6.4" height="23.9"/>
		<path class="st6" d="M236,206.2h-55.5v-30.3H236V206.2z M186.9,199.8h42.8v-17.5h-42.8V199.8z"/>
		<rect x="205.1" y="203" class="st6" width="6.4" height="47.8"/>
	</g>
</g>
</svg>
