<?xml version="1.0" encoding="utf-8"?>
<!-- Generator: Adobe Illustrator 25.4.1, SVG Export Plug-In . SVG Version: 6.00 Build 0)  -->
<svg version="1.1" id="Layer_1" xmlns="http://www.w3.org/2000/svg" xmlns:xlink="http://www.w3.org/1999/xlink" x="0px" y="0px"
	 viewBox="0 0 300 300" style="enable-background:new 0 0 300 300;" xml:space="preserve">
<style type="text/css">
	.st0{fill:#4E6245;}
	.st1{fill:#FFFFFF;}
	.st2{fill:#7AB870;}
	.st3{opacity:0.2;fill:#FFFFFF;}
	.st4{fill:#4EA641;}
	.st5{fill:#E95096;}
	.st6{fill:#344154;}
	.st7{fill:#FF8C00;}
	
		.st8{clip-path:url(#SVGID_00000183969362046085985590000003742989761911108739_);fill:url(#SVGID_00000142178297609742259740000008750409990691977911_);}
	.st9{clip-path:url(#SVGID_00000183969362046085985590000003742989761911108739_);fill:#90C089;}
	.st10{clip-path:url(#SVGID_00000183969362046085985590000003742989761911108739_);fill:#4EA641;}
	.st11{fill:#90C089;}
	.st12{fill:#A1C699;}
	.st13{fill:#8AC180;}
	.st14{fill:#76A36D;}
	.st15{fill:#3C3C3B;}
	.st16{fill:none;stroke:#FFFFFF;stroke-miterlimit:10;}
	.st17{fill-rule:evenodd;clip-rule:evenodd;fill:#7AB870;}
	.st18{fill-rule:evenodd;clip-rule:evenodd;fill:#4E6245;}
	.st19{fill-rule:evenodd;clip-rule:evenodd;fill:#FF8C00;}
</style>
<g>
	<rect x="28" y="111.1" class="st5" width="244" height="21.5"/>
	<path class="st6" d="M260.1,252.4H39.9c-8.2,0-14.9-6.7-14.9-14.9V111.1h6v126.4c0,4.9,4,9,9,9h220.1c4.9,0,9-4,9-9V111.1h6v126.4
		C275,245.7,268.3,252.4,260.1,252.4z"/>
	<g>
		<g>
			<path class="st6" d="M80.2,91.6c-7.9,0-14.3-6.4-14.3-14.3c0-1.9,0.4-3.7,1.1-5.5c0.6-1.5,2.4-2.2,3.9-1.6
				c1.5,0.6,2.2,2.4,1.6,3.9c-0.4,1-0.7,2.1-0.7,3.2c0,4.6,3.7,8.3,8.3,8.3c4.6,0,8.3-3.7,8.3-8.3c0-1.1-0.2-2.1-0.7-3.2
				c-0.6-1.5,0.1-3.3,1.6-3.9c1.5-0.6,3.3,0.1,3.9,1.6c0.8,1.8,1.1,3.6,1.1,5.5C94.5,85.2,88.1,91.6,80.2,91.6z"/>
		</g>
		<path class="st6" d="M80.2,80.1c-1.6,0-3-1.3-3-3V50.6c0-1.6,1.3-3,3-3s3,1.3,3,3v26.5C83.2,78.7,81.8,80.1,80.2,80.1z"/>
	</g>
	<g>
		<g>
			<path class="st6" d="M219.8,91.6c-7.9,0-14.3-6.4-14.3-14.3c0-1.9,0.4-3.7,1.1-5.5c0.6-1.5,2.4-2.2,3.9-1.6
				c1.5,0.6,2.2,2.4,1.6,3.9c-0.4,1-0.7,2.1-0.7,3.2c0,4.6,3.7,8.3,8.3,8.3c4.6,0,8.3-3.7,8.3-8.3c0-1.1-0.2-2.1-0.7-3.2
				c-0.6-1.5,0.1-3.3,1.6-3.9c1.5-0.6,3.3,0.1,3.9,1.6c0.8,1.8,1.1,3.6,1.1,5.5C234.1,85.2,227.7,91.6,219.8,91.6z"/>
		</g>
		<path class="st6" d="M219.8,80.1c-1.6,0-3-1.3-3-3V50.6c0-1.6,1.3-3,3-3s3,1.3,3,3v26.5C222.8,78.7,221.5,80.1,219.8,80.1z"/>
	</g>
	<path class="st6" d="M207.3,60.9H92.7c-1.6,0-3-1.3-3-3c0-1.6,1.3-3,3-3h114.6c1.6,0,3,1.3,3,3C210.3,59.6,209,60.9,207.3,60.9z"/>
	<path class="st6" d="M275,114.1H25V69.9C25,61.6,31.7,55,39.9,55h27.8c1.6,0,3,1.3,3,3c0,1.6-1.3,3-3,3H39.9c-4.9,0-9,4-9,9v38.2
		H269V69.9c0-4.9-4-9-9-9h-27.8c-1.6,0-3-1.3-3-3c0-1.6,1.3-3,3-3h27.8c8.2,0,14.9,6.7,14.9,14.9V114.1z"/>
	<g>
		<path class="st6" d="M100.1,174.4c-1.6,0-3-1.3-3-3V148c0-1.6,1.3-3,3-3s3,1.3,3,3v23.4C103,173.1,101.7,174.4,100.1,174.4z"/>
		<path class="st6" d="M133.3,174.4c-1.6,0-3-1.3-3-3V148c0-1.6,1.3-3,3-3s3,1.3,3,3v23.4C136.3,173.1,135,174.4,133.3,174.4z"/>
		<path class="st6" d="M166.7,174.4c-1.6,0-3-1.3-3-3V148c0-1.6,1.3-3,3-3s3,1.3,3,3v23.4C169.6,173.1,168.3,174.4,166.7,174.4z"/>
		<path class="st6" d="M200,174.4c-1.6,0-3-1.3-3-3V148c0-1.6,1.3-3,3-3s3,1.3,3,3v23.4C202.9,173.1,201.6,174.4,200,174.4z"/>
		<path class="st6" d="M100.1,231.8c-1.6,0-3-1.3-3-3v-23.4c0-1.6,1.3-3,3-3s3,1.3,3,3v23.4C103,230.4,101.7,231.8,100.1,231.8z"/>
		<path class="st6" d="M133.3,231.8c-1.6,0-3-1.3-3-3v-23.4c0-1.6,1.3-3,3-3s3,1.3,3,3v23.4C136.3,230.4,135,231.8,133.3,231.8z"/>
		<path class="st6" d="M166.7,231.8c-1.6,0-3-1.3-3-3v-23.4c0-1.6,1.3-3,3-3s3,1.3,3,3v23.4C169.6,230.4,168.3,231.8,166.7,231.8z"
			/>
		<path class="st6" d="M200,231.8c-1.6,0-3-1.3-3-3v-23.4c0-1.6,1.3-3,3-3s3,1.3,3,3v23.4C202.9,230.4,201.6,231.8,200,231.8z"/>
	</g>
	<path class="st6" d="M218.7,191.6H81.3c-1.6,0-3-1.3-3-3s1.3-3,3-3h137.5c1.6,0,3,1.3,3,3S220.4,191.6,218.7,191.6z"/>
</g>
</svg>
