<?xml version="1.0" encoding="utf-8"?>
<!-- Generator: Adobe Illustrator 25.4.1, SVG Export Plug-In . SVG Version: 6.00 Build 0)  -->
<svg version="1.1" id="Layer_1" xmlns="http://www.w3.org/2000/svg" xmlns:xlink="http://www.w3.org/1999/xlink" x="0px" y="0px"
	 viewBox="0 0 300 300" style="enable-background:new 0 0 300 300;" xml:space="preserve">
<style type="text/css">
	.st0{fill:#4E6245;}
	.st1{fill:#FFFFFF;}
	.st2{fill:#7AB870;}
	.st3{opacity:0.2;fill:#FFFFFF;}
	.st4{fill:#4EA641;}
	.st5{fill:#E95096;}
	.st6{fill:#344154;}
	.st7{fill:#FF8C00;}
	
		.st8{clip-path:url(#SVGID_00000126297517560397194080000000437825638339538088_);fill:url(#SVGID_00000075856519370307534030000017429320829515099551_);}
	.st9{clip-path:url(#SVGID_00000126297517560397194080000000437825638339538088_);fill:#90C089;}
	.st10{clip-path:url(#SVGID_00000126297517560397194080000000437825638339538088_);fill:#4EA641;}
	.st11{fill:#90C089;}
	.st12{fill:#A1C699;}
	.st13{fill:#8AC180;}
	.st14{fill:#76A36D;}
	.st15{fill:#3C3C3B;}
	.st16{fill:none;stroke:#FFFFFF;stroke-miterlimit:10;}
	.st17{fill-rule:evenodd;clip-rule:evenodd;fill:#7AB870;}
	.st18{fill-rule:evenodd;clip-rule:evenodd;fill:#4E6245;}
	.st19{fill-rule:evenodd;clip-rule:evenodd;fill:#FF8C00;}
</style>
<g>
	
		<ellipse transform="matrix(0.7071 -0.7071 0.7071 0.7071 -58.1064 137.2636)" class="st5" cx="136.6" cy="138.8" rx="44.2" ry="44.2"/>
	<g>
		<path class="st6" d="M72.8,146.5L72.8,146.5c-0.2-1.8,1.1-3.4,2.8-3.6l0,0c1.8-0.2,3.4,1.1,3.6,2.8l0,0l0,0l0,0
			c0.2,1.8-1.1,3.4-2.8,3.6l0,0c-0.1,0-0.3,0-0.4,0l0,0C74.5,149.4,73,148.1,72.8,146.5z M75.9,132c-1.8-0.3-3-2-2.7-3.8l0,0
			c0.3-1.8,2-3,3.7-2.7l0,0c1.8,0.3,3,2,2.7,3.7l0,0c-0.3,1.6-1.7,2.7-3.2,2.7l0,0C76.3,132.1,76.1,132.1,75.9,132z M80.2,115.3
			c-1.6-0.8-2.3-2.7-1.5-4.4l0,0c0.8-1.6,2.7-2.3,4.4-1.5l0,0c1.6,0.8,2.3,2.7,1.5,4.4l0,0c-0.6,1.2-1.7,1.8-3,1.8l0,0
			C81.2,115.6,80.7,115.5,80.2,115.3z M89.1,100.4c-1.3-1.2-1.4-3.3-0.2-4.6l0,0c1.2-1.3,3.3-1.4,4.6-0.2l0,0
			c1.3,1.2,1.4,3.3,0.2,4.6l0,0l0,0l0,0c-0.6,0.7-1.5,1.1-2.4,1.1l0,0C90.5,101.2,89.7,101,89.1,100.4z M101.8,88.6
			c-1-1.5-0.5-3.5,1.1-4.5l0,0c1.5-0.9,3.5-0.5,4.5,1.1l0,0c1,1.5,0.5,3.5-1,4.5l0,0c-0.5,0.3-1.1,0.5-1.7,0.5l0,0
			C103.5,90.2,102.4,89.6,101.8,88.6z M117.2,80.8c-0.5-1.7,0.5-3.5,2.3-4l0,0c1.7-0.5,3.5,0.5,4,2.3l0,0c0.5,1.7-0.5,3.5-2.3,4l0,0
			l0,0l0,0c-0.3,0.1-0.6,0.1-0.9,0.1l0,0C119,83.2,117.7,82.3,117.2,80.8z"/>
	</g>
	<path class="st6" d="M136.6,144.9c-3.4,0-6.1-2.7-6.1-6.1s2.7-6.1,6.1-6.1c3.4,0,6.1,2.7,6.1,6.1S140,144.9,136.6,144.9z
		 M136.6,138.4c-0.2,0-0.4,0.2-0.4,0.4c0,0.5,0.8,0.5,0.8,0C137,138.5,136.9,138.4,136.6,138.4z"/>
	<path class="st6" d="M81.3,183.9c-1,0-2-0.4-2.6-1.3c-1.1-1.4-0.8-3.5,0.6-4.6l54-40.9V68.7c0-1.8,1.5-3.3,3.3-3.3
		c1.8,0,3.3,1.5,3.3,3.3v70.1c0,1-0.5,2-1.3,2.6l-55.3,41.8C82.7,183.7,82,183.9,81.3,183.9z"/>
	<path class="st6" d="M136.6,250.4C75.1,250.4,25,200.3,25,138.8S75.1,27.1,136.6,27.1c61.6,0,111.6,50.1,111.6,111.6
		c0,8.9-1,17.7-3.1,26.2c-0.4,1.8-2.2,2.8-3.9,2.4c-1.8-0.4-2.8-2.2-2.4-3.9c1.9-8,2.9-16.3,2.9-24.7c0-58-47.2-105.1-105.1-105.1
		c-58,0-105.1,47.2-105.1,105.1s47.2,105.1,105.1,105.1c10.3,0,20.5-1.5,30.3-4.4c1.7-0.5,3.5,0.5,4.1,2.2c0.5,1.7-0.5,3.5-2.2,4.1
		C158.4,248.8,147.6,250.4,136.6,250.4z"/>
	<path class="st6" d="M42.9,142H28.3c-1.8,0-3.3-1.5-3.3-3.3s1.5-3.3,3.3-3.3h14.7c1.8,0,3.3,1.5,3.3,3.3S44.7,142,42.9,142z"/>
	<path class="st6" d="M245,142h-14.7c-1.8,0-3.3-1.5-3.3-3.3s1.5-3.3,3.3-3.3H245c1.8,0,3.3,1.5,3.3,3.3S246.8,142,245,142z"/>
	<path class="st6" d="M136.6,48.3c-1.8,0-3.3-1.5-3.3-3.3V30.4c0-1.8,1.5-3.3,3.3-3.3c1.8,0,3.3,1.5,3.3,3.3v14.7
		C139.9,46.9,138.4,48.3,136.6,48.3z"/>
	<path class="st6" d="M136.6,250.4c-1.8,0-3.3-1.5-3.3-3.3v-14.7c0-1.8,1.5-3.3,3.3-3.3c1.8,0,3.3,1.5,3.3,3.3v14.7
		C139.9,249,138.4,250.4,136.6,250.4z"/>
	<g>
		<path class="st6" d="M197.6,231.2H180v-11.7c0-2.4,0.9-4.5,2.6-6.2c1.7-1.7,3.8-2.6,6.2-2.6c0.8,0,1.5-0.3,2.1-0.9
			c0.6-0.6,0.9-1.3,0.9-2.1v-2.9c0-0.8-0.3-1.5-0.9-2.1c-0.6-0.6-1.3-0.9-2.1-0.9c-0.8,0-1.5,0.3-2.1,0.9c-0.6,0.6-0.9,1.3-0.9,2.1
			H180c0-2.4,0.9-4.5,2.6-6.2c1.7-1.7,3.8-2.6,6.2-2.6c2.4,0,4.5,0.9,6.2,2.6c1.7,1.7,2.6,3.8,2.6,6.2v2.9c0,2.4-0.9,4.5-2.6,6.2
			c-1.7,1.7-3.8,2.6-6.2,2.6c-0.8,0-1.5,0.3-2.1,0.9c-0.6,0.6-0.9,1.3-0.9,2.1v4.4c0,1,0.5,1.5,1.5,1.5h10.3V231.2z"/>
		<path class="st6" d="M220.3,231.2h-5.9v-11.7h-11.7v-5.9l8.8-17.6h8.8V231.2z M214.5,212.2v-10.3l-5.9,11.7h4.4
			C214,213.6,214.5,213.1,214.5,212.2z"/>
		<path class="st6" d="M252.3,231.2h-5.9v-17.6c0-0.8-0.3-1.5-0.9-2.1c-0.6-0.6-1.3-0.9-2.1-0.9c-0.8,0-1.5,0.3-2.1,0.9
			c-0.6,0.6-0.9,1.3-0.9,2.1v17.6h-5.9V196h5.9v9.3c1-0.4,2-0.5,2.9-0.5c2.4,0,4.5,0.9,6.2,2.6c1.7,1.7,2.6,3.8,2.6,6.2V231.2z"/>
	</g>
	<path class="st6" d="M215.8,272.9c-32.7,0-59.2-26.6-59.2-59.2s26.6-59.2,59.2-59.2c32.7,0,59.2,26.6,59.2,59.2
		S248.4,272.9,215.8,272.9z M215.8,160.9c-29.1,0-52.7,23.6-52.7,52.7s23.6,52.7,52.7,52.7s52.7-23.6,52.7-52.7
		S244.8,160.9,215.8,160.9z"/>
</g>
</svg>
